<svg xmlns="http://www.w3.org/2000/svg" width="208" height="104" viewBox="0 0 208 104" version="1.1">
	<path d="M 66.405 3.104 C 64.927 4.737, 64.421 7.092, 64.147 13.604 C 63.953 18.222, 63.371 22, 62.852 22 C 62.334 22, 54.717 20.191, 45.925 17.981 C 33.613 14.886, 29.487 14.204, 27.970 15.016 C 26.176 15.976, 26 17.156, 26 28.192 L 26 40.314 18.299 52.407 C 2.401 77.373, 0 81.339, 0 82.630 C 0 83.358, 1.013 84.592, 2.250 85.371 C 4.169 86.580, 5.966 86.595, 14.469 85.471 C 19.952 84.746, 24.790 84.370, 25.219 84.636 C 25.649 84.901, 26 88.861, 26 93.437 C 26 99.759, 26.375 102.066, 27.563 103.052 C 28.872 104.139, 43.341 100.890, 116.813 83.016 C 165.041 71.282, 205.085 61.472, 205.799 61.215 C 207.868 60.472, 206.715 57.617, 203.990 56.737 C 202.621 56.294, 188.225 52.685, 172 48.716 L 142.500 41.500 142.227 23.053 C 141.999 7.660, 141.683 4.307, 140.322 2.803 C 138.808 1.131, 136.138 1, 103.500 1 C 68.999 1, 68.273 1.041, 66.405 3.104 M 69.680 5.654 C 69.306 6.027, 69 8.058, 69 10.167 L 69 14 103.557 14 L 138.115 14 137.807 9.750 L 137.500 5.500 103.930 5.237 C 85.466 5.092, 70.054 5.280, 69.680 5.654 M 69 20 C 69 21.961, 69.667 22, 103.500 22 C 137.333 22, 138 21.961, 138 20 C 138 18.039, 137.333 18, 103.500 18 C 69.667 18, 69 18.039, 69 20 M 30 29.320 L 30 39.641 42.250 40.861 C 48.987 41.533, 56.638 42.346, 59.250 42.670 L 64 43.258 64 35.167 L 64 27.077 60.250 26.092 C 48.963 23.127, 31.976 19, 31.058 19 C 30.382 19, 30 22.727, 30 29.320 M 69 35.344 L 69 43.688 92.750 45.918 C 106.027 47.165, 121.130 48.006, 127 47.825 L 137.500 47.500 137.785 37.250 L 138.070 27 103.535 27 L 69 27 69 35.344 M 24.623 50.736 C 8.397 75.940, 5.012 81.504, 5.755 81.752 C 6.703 82.068, 180.954 60.194, 182.500 59.565 C 183.050 59.341, 182.774 59.122, 181.886 59.079 C 178.498 58.913, 36.313 45.028, 32.739 44.514 C 29.017 43.978, 28.931 44.044, 24.623 50.736 M 142 46.918 C 142 47.423, 141.756 48.472, 141.458 49.249 C 141.023 50.383, 143.345 50.896, 153.208 51.843 C 159.969 52.492, 166.400 52.992, 167.500 52.955 C 168.896 52.907, 145.867 46.600, 142.250 46.039 C 142.113 46.017, 142 46.413, 142 46.918 M 93.750 75.303 L 30 83.386 30 91.193 C 30 96.124, 30.398 99, 31.082 99 C 32.121 99, 159.452 68.267, 161.500 67.522 C 164.305 66.501, 152.209 67.890, 93.750 75.303" stroke="none" fill="black" fill-rule="evenodd"/>
</svg>